<svg width="31" height="28" viewBox="0 0 31 28" fill="none" xmlns="http://www.w3.org/2000/svg">
<path d="M28.0837 1.76807H2.91642C2.43713 1.76807 2.04858 2.24018 2.04858 2.82255V25.1777C2.04858 25.7601 2.43713 26.2322 2.91642 26.2322H28.0837C28.563 26.2322 28.9516 25.7601 28.9516 25.1777V2.82255C28.9516 2.24018 28.563 1.76807 28.0837 1.76807Z" stroke="white" stroke-width="1.5" stroke-linecap="round" stroke-linejoin="round"/>
<path d="M17.0968 8.7276C16.8872 8.47253 16.6383 8.27017 16.3643 8.13211C16.0903 7.99404 15.7966 7.92297 15.5 7.92297C15.2033 7.92297 14.9096 7.99404 14.6356 8.13211C14.3616 8.27017 14.1127 8.47253 13.9031 8.7276C13.6411 9.04762 13.4478 9.44107 13.3404 9.87326C13.233 10.3055 13.2147 10.7631 13.2872 11.2059C13.3597 11.6487 13.5207 12.063 13.7561 12.4124C13.9915 12.7617 14.2939 13.0353 14.6369 13.2091C14.9798 13.3829 15.3527 13.4515 15.7226 13.4088C16.0925 13.3662 16.448 13.2137 16.758 12.9647C17.0679 12.7157 17.3227 12.3779 17.4998 11.981C17.6769 11.5841 17.771 11.1404 17.7737 10.6889C17.7749 10.3216 17.7138 9.95799 17.5944 9.62058C17.4749 9.28317 17.2997 8.97921 17.0794 8.7276H17.0968Z" stroke="white" stroke-width="1.5" stroke-linecap="round" stroke-linejoin="round"/>
<path d="M13.7644 15.6134H17.2358C17.9263 15.6134 18.5885 15.9467 19.0767 16.54C19.565 17.1332 19.8393 17.9379 19.8393 18.7769V20.0528H11.1609V18.7769C11.1609 17.9379 11.4352 17.1332 11.9234 16.54C12.4117 15.9467 13.0739 15.6134 13.7644 15.6134Z" stroke="white" stroke-width="1.5" stroke-linecap="round" stroke-linejoin="round"/>
<path d="M9.78956 11.3322C9.62821 11.1345 9.43624 10.9776 9.22474 10.8706C9.01323 10.7635 8.78636 10.7084 8.55723 10.7084C8.3281 10.7084 8.10124 10.7635 7.88973 10.8706C7.67822 10.9776 7.48626 11.1345 7.3249 11.3322C7.12498 11.5772 6.97758 11.8781 6.89563 12.2084C6.81368 12.5388 6.79969 12.8885 6.85487 13.2269C6.91005 13.5654 7.03272 13.8822 7.21213 14.1496C7.39155 14.417 7.62221 14.6269 7.88391 14.7608C8.14561 14.8947 8.43035 14.9485 8.71315 14.9176C8.99596 14.8866 9.2682 14.7718 9.50599 14.5833C9.74379 14.3947 9.93989 14.1382 10.0771 13.8361C10.2143 13.534 10.2884 13.1956 10.2929 12.8507C10.2931 12.5699 10.2472 12.2918 10.1577 12.0329C10.0683 11.774 9.93725 11.5393 9.77221 11.3428L9.78956 11.3322Z" stroke="white" stroke-width="1.5" stroke-linecap="round" stroke-linejoin="round"/>
<path d="M11.4558 17.311C11.2938 17.0958 11.0967 16.9237 10.8771 16.8058C10.6576 16.6878 10.4202 16.6264 10.1801 16.6256H6.93441C6.47408 16.6256 6.0326 16.8478 5.7071 17.2433C5.3816 17.6388 5.19873 18.1752 5.19873 18.7346V20.0527H11.1608" stroke="white" stroke-width="1.5" stroke-linecap="round" stroke-linejoin="round"/>
<path d="M23.6751 11.3322C23.5137 11.1345 23.3217 10.9776 23.1102 10.8706C22.8987 10.7635 22.6719 10.7084 22.4427 10.7084C22.2136 10.7084 21.9867 10.7635 21.7752 10.8706C21.5637 10.9776 21.3718 11.1345 21.2104 11.3322C21.0105 11.5772 20.8631 11.8781 20.7811 12.2084C20.6992 12.5388 20.6852 12.8885 20.7404 13.2269C20.7955 13.5654 20.9182 13.8822 21.0976 14.1496C21.277 14.417 21.5077 14.6269 21.7694 14.7608C22.0311 14.8947 22.3158 14.9485 22.5987 14.9176C22.8815 14.8866 23.1537 14.7718 23.3915 14.5833C23.6293 14.3947 23.8254 14.1382 23.9626 13.8361C24.0998 13.534 24.1739 13.1956 24.1784 12.8507C24.1786 12.5699 24.1327 12.2918 24.0432 12.0329C23.9538 11.774 23.8227 11.5393 23.6577 11.3428L23.6751 11.3322Z" stroke="white" stroke-width="1.5" stroke-linecap="round" stroke-linejoin="round"/>
<path d="M19.8391 20.0527H25.7925V18.7346C25.7925 18.1752 25.6096 17.6388 25.2841 17.2433C24.9586 16.8478 24.5172 16.6256 24.0568 16.6256H20.8198C20.5797 16.6264 20.3424 16.6878 20.1228 16.8058C19.9032 16.9237 19.7061 17.0958 19.5441 17.311" stroke="white" stroke-width="1.5" stroke-linecap="round" stroke-linejoin="round"/>
</svg>
